<?xml version="1.0" encoding="UTF-8"?>
<svg width="43px" height="50px" viewBox="0 0 43 50" version="1.1" xmlns="http://www.w3.org/2000/svg" xmlns:xlink="http://www.w3.org/1999/xlink">
    <!-- Generator: Sketch 56.3 (81716) - https://sketch.com -->
    <title>binary-code</title>
    <desc>Created with Sketch.</desc>
    <g id="Page-1" stroke="none" stroke-width="1" fill="none" fill-rule="evenodd">
        <g id="landing" transform="translate(-961.000000, -1260.000000)" fill="#FFFFFF" fill-rule="nonzero">
            <g id="binary-code" transform="translate(961.000000, 1260.000000)">
                <path d="M3.81916444,30.8580153 C3.81916444,31.6484733 4.46091556,32.289313 5.25249778,32.289313 C6.04408,32.289313 6.68583111,31.6484733 6.68583111,30.8580153 L6.68583111,19.6696565 C6.68583111,19.0906489 6.33667111,18.5688931 5.80098667,18.3473282 C5.26568444,18.1259542 4.64896889,18.2482824 4.23903556,18.6576336 L0.60716,22.2843511 C0.0473955556,22.8433206 0.0473955556,23.7496183 0.60716,24.3083969 C1.16692444,24.8673664 2.07451111,24.8673664 2.63408444,24.3083969 L3.81916444,23.125 L3.81916444,30.8580153 Z" id="Path"></path>
                <path d="M12.2844311,6.07003817 L13.4695111,4.88664122 L13.4695111,12.6196565 C13.4695111,13.4101145 14.1112622,14.0509542 14.9028444,14.0509542 C15.6944267,14.0509542 16.3361778,13.4101145 16.3361778,12.6196565 L16.3361778,1.43129771 C16.3361778,0.852290076 15.9870178,0.330534351 15.4513333,0.108969466 C14.9160311,-0.11240458 14.2993156,0.00992366412 13.8893822,0.419274809 L10.2575067,4.04599237 C9.69774222,4.60496183 9.69774222,5.51125954 10.2575067,6.07003817 C10.8172711,6.62900763 11.7248578,6.62900763 12.2844311,6.07003817 Z" id="Path"></path>
                <path d="M28.6313111,18.3473282 C28.0960089,18.1259542 27.4792933,18.2482824 27.06936,18.6576336 L23.4374844,22.2843511 C22.87772,22.8433206 22.87772,23.7496183 23.4374844,24.3083969 C23.9972489,24.8673664 24.9048356,24.8673664 25.4644089,24.3083969 L26.6494889,23.125 L26.6494889,30.8580153 C26.6494889,31.6484733 27.29124,32.289313 28.0828222,32.289313 C28.8744044,32.289313 29.5161556,31.6484733 29.5161556,30.8580153 L29.5161556,19.6696565 C29.5161556,19.0908397 29.1669956,18.5688931 28.6313111,18.3473282 Z" id="Path"></path>
                <path d="M22.4014711,35.9627863 C21.8661689,35.7414122 21.2494533,35.8637405 20.83952,36.2730916 L17.2076444,39.8998092 C16.64788,40.4587786 16.64788,41.3650763 17.2076444,41.923855 C17.7674089,42.4828244 18.6749956,42.4828244 19.2345689,41.923855 L20.4196489,40.740458 L20.4196489,44.9765267 C20.4196489,45.7669847 21.0614,46.4078244 21.8529822,46.4078244 C22.6445644,46.4078244 23.2863156,45.7669847 23.2863156,44.9765267 L23.2863156,37.2851145 C23.2863156,36.7061069 22.9371556,36.1843511 22.4014711,35.9627863 Z" id="Path"></path>
                <path d="M20.0634178,27.370229 L20.0634178,23.1576336 C20.0634178,20.445229 17.8332132,18.2385496 15.091892,18.2385496 L15.0207214,18.2385496 C12.2794001,18.2385496 10.0491956,20.445229 10.0491956,23.1576336 L10.0491956,27.370229 C10.0491956,30.0826336 12.2794001,32.289313 15.0207214,32.289313 L15.091892,32.289313 C17.8332132,32.289313 20.0634178,30.0826336 20.0634178,27.370229 Z M17.1703045,27.370229 C17.1703045,28.5041985 16.2379506,29.4267176 15.091892,29.4267176 L15.0207214,29.4267176 C13.8746628,29.4267176 12.9423088,28.5041985 12.9423088,27.370229 L12.9423088,23.1576336 C12.9423088,22.0236641 13.8746628,21.101145 15.0207214,21.101145 L15.091892,21.101145 C16.2379506,21.101145 17.1703045,22.0236641 17.1703045,23.1576336 L17.1703045,27.370229 Z" id="Shape"></path>
                <path d="M38.0284742,18.2383588 L37.9573036,18.2383588 C35.2159823,18.2383588 32.9857778,20.4450382 32.9857778,23.1574427 L32.9857778,27.3700382 C32.9857778,30.0824427 35.2159823,32.2891221 37.9573036,32.2891221 L38.0284742,32.2891221 C40.7697954,32.2891221 43,30.0824427 43,27.3700382 L43,23.1574427 C43,20.445229 40.7697954,18.2383588 38.0284742,18.2383588 Z M40.1068867,27.370229 C40.1068867,28.5041985 39.1745328,29.4267176 38.0284742,29.4267176 L37.9573036,29.4267176 C36.811245,29.4267176 35.878891,28.5041985 35.878891,27.370229 L35.878891,23.1576336 C35.878891,22.0236641 36.811245,21.101145 37.9573036,21.101145 L38.0284742,21.101145 C39.1745328,21.101145 40.1068867,22.0236641 40.1068867,23.1576336 L40.1068867,27.370229 Z" id="Shape"></path>
                <path d="M24.6961422,0 L24.6256222,0 C21.90936,0 19.6995422,2.20667939 19.6995422,4.91908397 L19.6995422,9.13167939 C19.6995422,11.844084 21.90936,14.0507634 24.6256222,14.0507634 L24.6961422,14.0507634 C25.4877244,14.0507634 26.1294756,13.4099237 26.1294756,12.6194656 C26.1294756,11.8290076 25.4877244,11.1881679 24.6961422,11.1881679 L24.6256222,11.1881679 C23.49004,11.1881679 22.5662089,10.2656489 22.5662089,9.13167939 L22.5662089,4.91908397 C22.5662089,3.7851145 23.49004,2.86259542 24.6256222,2.86259542 L24.6961422,2.86259542 C25.8317244,2.86259542 26.7555556,3.7851145 26.7555556,4.91908397 C26.7555556,5.70954198 27.3973067,6.35038168 28.1888889,6.35038168 C28.9804711,6.35038168 29.6222222,5.70954198 29.6222222,4.91908397 C29.6224133,2.20667939 27.4125956,0 24.6961422,0 Z" id="Path"></path>
                <path d="M38.0284742,0 L37.9573036,0 C35.2159823,0 32.9857778,2.20667939 32.9857778,4.91908397 L32.9857778,9.13167939 C32.9857778,11.844084 35.2159823,14.0507634 37.9573036,14.0507634 L38.0284742,14.0507634 C40.7697954,14.0507634 43,11.844084 43,9.13167939 L43,4.91908397 C43,2.20667939 40.7697954,0 38.0284742,0 Z M40.1068867,9.13187023 C40.1068867,10.2658397 39.1745328,11.1883588 38.0284742,11.1883588 L37.9573036,11.1883588 C36.811245,11.1883588 35.878891,10.2658397 35.878891,9.13187023 L35.878891,4.91908397 C35.878891,3.7851145 36.811245,2.86259542 37.9573036,2.86259542 L38.0284742,2.86259542 C39.1745328,2.86259542 40.1068867,3.7851145 40.1068867,4.91908397 L40.1068867,9.13187023 Z" id="Shape"></path>
                <path d="M8.39421196,35.8538168 L8.32304137,35.8538168 C5.58172013,35.8538168 3.35151556,38.0604962 3.35151556,40.7729008 L3.35151556,44.9854962 C3.35151556,47.6979008 5.58172013,49.9045802 8.32304137,49.9045802 L8.39421196,49.9045802 C11.1355332,49.9045802 13.3657378,47.6979008 13.3657378,44.9854962 L13.3657378,40.7729008 C13.3659307,38.060687 11.1357261,35.8538168 8.39421196,35.8538168 Z M10.4728174,44.985687 C10.4728174,46.1196565 9.54046343,47.0421756 8.39440483,47.0421756 L8.32323425,47.0421756 C7.17717565,47.0421756 6.24482169,46.1196565 6.24482169,44.985687 L6.24482169,40.7729008 C6.24482169,39.6389313 7.17717565,38.7164122 8.32323425,38.7164122 L8.39440483,38.7164122 C9.54046343,38.7164122 10.4728174,39.6389313 10.4728174,40.7729008 L10.4728174,44.985687 Z" id="Shape"></path>
            </g>
        </g>
    </g>
</svg>