<?xml version="1.0" encoding="UTF-8"?>
<svg width="47px" height="49px" viewBox="0 0 47 49" version="1.1" xmlns="http://www.w3.org/2000/svg" xmlns:xlink="http://www.w3.org/1999/xlink">
    <!-- Generator: Sketch 56.3 (81716) - https://sketch.com -->
    <title>oval-3</title>
    <desc>Created with Sketch.</desc>
    <g id="Page-1" stroke="none" stroke-width="1" fill="none" fill-rule="evenodd">
        <g id="landing" transform="translate(-959.000000, -1542.000000)">
            <g id="oval-3" transform="translate(961.000000, 1544.000000)">
                <ellipse id="Oval" fill="#FFFFFF" cx="21.5" cy="21.2765957" rx="4.3" ry="4.25531915"></ellipse>
                <g id="clicker" transform="translate(27.950000, 34.042553) rotate(-27.000000) translate(-27.950000, -34.042553) translate(17.200000, 22.340426)" fill="#FFFFFF" fill-rule="nonzero">
                    <path d="M18.9688756,7.769684 C18.5924975,7.769684 18.2352039,7.85071868 17.9138524,7.99603423 C17.6953657,6.84211042 16.6626164,5.96574281 15.4253016,5.96574281 C15.0365209,5.96574281 14.6680904,6.05249465 14.3385886,6.20695767 C14.0656322,5.12372792 13.0679136,4.31805436 11.8817275,4.31805436 C11.5218522,4.31805436 11.1795429,4.39267586 10.8692777,4.52620907 L10.8692777,2.48572617 C10.8692777,1.11509676 9.73381534,0 8.33815337,0 C6.9424914,0 5.80702902,1.11509676 5.80702902,2.48572617 L5.80702902,12.2465265 L4.82500339,10.1783029 C4.23515018,8.93603644 2.72619508,8.39673329 1.461291,8.97600691 C0.196437537,9.55523082 -0.352816447,11.0371213 0.236986149,12.2793381 L5.51939205,23.4042553 L19.6919673,23.403957 L19.901595,22.9908293 C19.9668474,22.8622179 21.5,19.8064153 21.5,16.8048015 L21.5,10.2554102 C21.5,8.88473105 20.3645376,7.769684 18.9688756,7.769684 Z M19.981376,16.8048015 C19.981376,18.8541833 19.1257547,21.0257137 18.7339873,21.9125213 L6.48688902,21.9128196 L1.61341157,11.6490574 C1.37746016,11.1521607 1.59716175,10.5594145 2.10313351,10.3276951 C2.60910527,10.0959757 3.21267718,10.311687 3.44862859,10.8085837 L6.03113477,16.2475017 L7.32575425,16.2524731 L7.32575425,2.48572617 C7.32575425,1.93747441 7.77993921,1.4914357 8.33820399,1.4914357 C8.89646878,1.4914357 9.35065373,1.93747441 9.35065373,2.48572617 L9.35065373,10.2554102 L10.8693283,10.2554102 L10.8693283,6.80378053 C10.8693283,6.25552876 11.3235133,5.80949006 11.8817781,5.80949006 C12.4400429,5.80949006 12.8942278,6.25552876 12.8942278,6.80378053 L12.8942278,10.2554102 L14.4129024,10.2554102 L14.4129024,8.45146898 C14.4129024,7.90321721 14.8670874,7.45717851 15.4253522,7.45717851 C15.983617,7.45717851 16.4378019,7.90321721 16.4378019,8.45146898 L16.4378019,10.2554102 L17.9564765,10.2554102 C17.9564765,9.70715841 18.4106615,9.2611197 18.9689263,9.2611197 C19.5271911,9.2611197 19.981376,9.70715841 19.981376,10.2554102 L19.981376,16.8048015 L19.981376,16.8048015 Z" id="Shape"></path>
                </g>
                <ellipse id="Oval" stroke="#FFFFFF" stroke-width="3" cx="21.5" cy="21.2765957" rx="21.5" ry="21.2765957"></ellipse>
            </g>
        </g>
    </g>
</svg>