<?xml version="1.0" encoding="UTF-8"?>
<svg width="43px" height="50px" viewBox="0 0 43 50" version="1.1" xmlns="http://www.w3.org/2000/svg" xmlns:xlink="http://www.w3.org/1999/xlink">
    <!-- Generator: Sketch 56.3 (81716) - https://sketch.com -->
    <title>shield</title>
    <desc>Created with Sketch.</desc>
    <g id="Page-1" stroke="none" stroke-width="1" fill="none" fill-rule="evenodd">
        <g id="landing-smartex" transform="translate(-960.000000, -1260.000000)" fill="#FFFFFF" fill-rule="nonzero">
            <g id="shield" transform="translate(960.000000, 1260.000000)">
                <path d="M42.5429594,13.5662774 L42.5414329,13.5273675 C42.5196816,13.047098 42.5051807,12.5389814 42.4964039,11.9736443 C42.4555724,9.21676782 40.2632649,6.93634619 37.5050405,6.78223272 C31.7542878,6.46141722 27.3055635,4.58687861 23.504419,0.883196118 L23.4719828,0.852297056 C22.2321556,-0.284099019 20.3619208,-0.284099019 19.121712,0.852297056 L19.0892758,0.883196118 C15.2881313,4.58687861 10.8394069,6.46141722 5.08865426,6.78261416 C2.33081152,6.93634619 0.138122345,9.21676782 0.0972909295,11.9740257 C0.0888956213,12.5355481 0.0740130915,13.0436648 0.0522617619,13.5273675 L0.0499721946,13.6177756 C-0.0618373725,19.4798098 -0.200740854,26.7754045 2.24075328,33.3973247 C3.58323163,37.0388278 5.61641082,40.2042575 8.28343208,42.8062577 C11.3209896,45.7695088 15.2995793,48.1220281 20.1085366,49.7982029 C20.2649936,49.852753 20.4275564,49.8970033 20.593172,49.9301911 C20.8267128,49.9767304 21.0617801,50 21.2968474,50 C21.5319146,50 21.7673635,49.9767304 22.0005227,49.9301911 C22.1661384,49.8970033 22.3298459,49.8523715 22.4870662,49.7974399 C27.2902994,48.1182135 31.2646915,45.7645497 34.2995778,42.8016799 C36.9654543,40.198917 38.9986335,37.0327243 40.3422567,33.3904583 C42.7929091,26.7487016 42.6543873,19.4393741 42.5429594,13.5662774 Z M37.5886116,32.3753694 C35.0135564,39.3547262 29.7569793,44.1478841 21.5185586,47.027975 C21.4891751,47.0378932 21.4578837,47.046667 21.4254474,47.053152 C21.3403501,47.0699366 21.2537263,47.0699366 21.1674841,47.0527705 C21.1354294,47.0462855 21.104138,47.0378932 21.0751362,47.027975 C12.8279386,44.1532246 7.56792699,39.362737 4.99477995,32.3829986 C2.74446884,26.2791132 2.8719242,19.5820435 2.98449692,13.6738516 L2.98526017,13.6410453 C3.00815634,13.1333101 3.02342044,12.6015422 3.03181565,12.0171318 C3.05013258,10.7929977 4.02550909,9.78019761 5.2523618,9.71191463 C8.50666964,9.53033539 11.3656371,8.90167448 13.9925901,7.79007377 C16.6161087,6.67999903 18.9461747,5.11521314 21.1152045,3.00645252 C21.2254877,2.91337408 21.3685887,2.91299264 21.4784902,3.00645252 C23.6479016,5.11521314 25.9779677,6.67999903 28.6011047,7.79007377 C31.2280576,8.90167448 34.0870252,9.53033539 37.3417146,9.71191463 C38.5685673,9.78019761 39.5439437,10.7929977 39.5618791,12.0175133 C39.5706559,12.6049755 39.58592,13.1367433 39.6088162,13.6410453 C39.7210074,19.5561036 39.8454099,26.2585139 37.5886116,32.3753694 Z" id="Shape"></path>
                <path d="M21.2962963,12.5 C14.4035977,12.5 8.7962963,18.1075983 8.7962963,24.9998086 C8.7962963,31.8924018 14.4035977,37.5 21.2962963,37.5 C28.1886122,37.5 33.7962963,31.8924018 33.7962963,24.9998086 C33.7962963,18.1075983 28.1886122,12.5 21.2962963,12.5 Z M21.2962963,34.5565275 C16.0265121,34.5565275 11.7394311,30.2695122 11.7394311,24.9998086 C11.7394311,19.7301052 16.0265121,15.4430898 21.2962963,15.4430898 C26.5656978,15.4430898 30.8527788,19.7301052 30.8527788,24.9998086 C30.8527788,30.2695122 26.5656978,34.5565275 21.2962963,34.5565275 Z" id="Shape"></path>
                <path d="M24.7836415,21.2617142 L18.9337672,27.0274224 L17.3459882,25.462488 C16.7668615,24.8916934 15.8279975,24.8916934 15.2488707,25.462488 C14.6701295,26.0332824 14.6701295,26.9586383 15.2488707,27.5290527 L17.8854012,30.1276498 C18.1749646,30.413047 18.5543659,30.5555556 18.9337672,30.5555556 C19.3131685,30.5555556 19.6925698,30.413047 19.9821332,30.1276498 L26.8807589,23.328279 C27.4595001,22.7574845 27.4595001,21.8321286 26.8807589,21.2617142 C26.3016322,20.6905397 25.3627682,20.6905397 24.7836415,21.2617142 Z" id="Path"></path>
            </g>
        </g>
    </g>
</svg>