<?xml version="1.0" encoding="UTF-8"?>
<svg viewBox="0 0 80 80" version="1.1" xmlns="http://www.w3.org/2000/svg" xmlns:xlink="http://www.w3.org/1999/xlink">
    <!-- Generator: Sketch 56.3 (81716) - https://sketch.com -->
    <title>1-uplain</title>
    <desc>Created with Sketch.</desc>
    <g id="Page-1" stroke="none" stroke-width="1" fill="none" fill-rule="evenodd">
        <g id="Artboard" transform="translate(-1350.000000, -103.000000)">
            <g id="1-uplain" transform="translate(1349.000000, 103.000000)">
                <g id="Segments-circle">
                    <path d="M41,0 C55.29,0 68.49,7.62 75.64,20 C82.79,32.38 82.79,47.62 75.64,60 C68.49,72.38 55.29,80 41,80 C26.71,80 13.51,72.38 6.36,60 C-0.79,47.62 -0.79,32.38 6.36,20 C13.51,7.62 26.71,0 41,0 L41,15 C32.07,15 23.82,19.76 19.35,27.5 C14.88,35.24 14.88,44.76 19.35,52.5 C23.82,60.24 32.07,65 41,65 C49.93,65 58.18,60.24 62.65,52.5 C67.12,44.76 67.12,35.24 62.65,27.5 C58.18,19.76 49.93,15 41,15 L41,0 Z" id="Base-plate" fill-opacity="0.002" fill="#455A64"></path>
                    <path d="M41.125,0.12519315 L41.125,14.8753093 C50.0536152,14.9195065 58.287797,19.6967101 62.7582452,27.4374863 C67.2297371,35.1800694 67.2504882,44.6950678 62.8204985,52.4541016 L75.5940963,59.8291581 C82.6593538,47.5073502 82.6385742,32.3677479 75.5317559,20.0625158 C68.4253274,7.75795837 55.3230632,0.16948871 41.125,0.125194973 Z" id="Segment-1" stroke="#FFFFFF" stroke-width="0.25" fill="#D8D8D8"></path>
                    <path d="M75.4690647,60.0456462 L62.6954711,52.6705921 C58.1899819,60.3837148 49.9350503,65.125 41,65.125 C32.0649497,65.125 23.8100181,60.3837148 19.304529,52.6705921 L6.5309353,60.0456462 C13.672504,72.3225173 26.7955402,79.875 41,79.875 C55.2044598,79.875 68.327496,72.3225173 75.4690631,60.0456453 Z" id="Segment-2" stroke="#FFFFFF" stroke-width="0.25" fill="#D8D8D8"></path>
                    <path d="M6.40590374,59.8291581 L19.1795014,52.4541016 C14.7495118,44.6950678 14.7702629,35.1800694 19.2417548,27.4374863 C23.712203,19.6967101 31.9463848,14.9195065 40.875,14.8753094 L40.875,0.12519315 C26.6769368,0.16948871 13.5746726,7.75795837 6.46824407,20.0625158 C-0.638574171,32.3677479 -0.659353756,47.5073502 6.40590532,59.8291571 Z" id="Segment-3" stroke="#FFFFFF" stroke-width="0.25" fill="#064772"></path>
                </g>
                <text id="1" font-family="Montserrat" font-size="30" font-weight="800" letter-spacing="1.66666667" fill="#064772">
                    <tspan x="36" y="50">1</tspan>
                </text>
            </g>
        </g>
    </g>
</svg>
