<?xml version="1.0" encoding="UTF-8"?>
<svg viewBox="0 0 23 23" version="1.1" xmlns="http://www.w3.org/2000/svg" xmlns:xlink="http://www.w3.org/1999/xlink">
    <!-- Generator: Sketch 56.3 (81716) - https://sketch.com -->
    <title>united-kingdom</title>
    <desc>Created with Sketch.</desc>
    <g id="Page-1" stroke="none" stroke-width="1" fill="none" fill-rule="evenodd">
        <g id="landing-smartex" transform="translate(-937.000000, -29.000000)" fill-rule="nonzero">
            <g id="Group-15-Copy" transform="translate(937.000000, 28.000000)">
                <g id="united-kingdom" transform="translate(0.000000, 1.000000)">
                    <circle id="Oval" fill="#F0F0F0" cx="11.5" cy="11.5" r="11.5"></circle>
                    <g id="Group" transform="translate(0.330935, 0.330935)" fill="#0052B4">
                        <path d="M2.02304189,4.14975792 C1.11740188,5.32804921 0.434512648,6.68612642 0.0368849356,8.16147881 L6.03476278,8.16147881 L2.02304189,4.14975792 Z" id="Path"></path>
                        <path d="M22.3012446,8.16147881 C21.9036168,6.68617146 21.2206826,5.32809425 20.3150876,4.14980296 L16.3034568,8.16147881 L22.3012446,8.16147881 Z" id="Path"></path>
                        <path d="M0.0368849356,14.1767858 C0.434557684,15.6520931 1.11744691,17.0101704 2.02304189,18.1884166 L6.03462767,14.1767858 L0.0368849356,14.1767858 L0.0368849356,14.1767858 Z" id="Path"></path>
                        <path d="M18.1883716,2.02308693 C17.0100803,1.11744691 15.6520481,0.434557684 14.1766957,0.0368849356 L14.1766957,6.03471774 L18.1883716,2.02308693 Z" id="Path"></path>
                        <path d="M4.14975792,20.3150426 C5.32804921,21.2206826 6.68612642,21.9035718 8.16143377,22.3012446 L8.16143377,16.3034568 L4.14975792,20.3150426 Z" id="Path"></path>
                        <path d="M8.16138874,0.0368849356 C6.68608138,0.434557684 5.32800418,1.11744691 4.14975792,2.02304189 L8.16138874,6.03467271 L8.16138874,0.0368849356 Z" id="Path"></path>
                        <path d="M14.1767408,22.3012446 C15.6520481,21.9035718 17.0101253,21.2206826 18.1883716,20.3150876 L14.1767408,16.3034568 L14.1767408,22.3012446 Z" id="Path"></path>
                        <path d="M16.3034568,14.1767858 L20.3150876,18.1884617 C21.2206826,17.0102154 21.9036168,15.6520931 22.3012446,14.1767858 L16.3034568,14.1767858 Z" id="Path"></path>
                    </g>
                    <g id="Group" fill="#D80027">
                        <path d="M22.9026543,10.0000137 L13.0000762,10.0000137 L13.0000313,10.0000137 L13.0000313,0.0973457031 C12.5089902,0.033421875 12.0083809,0 11.5,0 C10.9915293,0 10.4910098,0.033421875 10.0000137,0.0973457031 L10.0000137,9.99992383 L10.0000137,9.99996875 L0.0973457031,9.99996875 C0.033421875,10.4910098 0,10.9916191 0,11.5 C0,12.0084707 0.033421875,12.5089902 0.0973457031,12.9999863 L9.99992383,12.9999863 L9.99996875,12.9999863 L9.99996875,22.9026543 C10.4910098,22.9665781 10.9915293,23 11.5,23 C12.0083809,23 12.5089902,22.966623 12.9999863,22.9026543 L12.9999863,13.0000762 L12.9999863,13.0000313 L22.9026543,13.0000313 C22.9665781,12.5089902 23,12.0084707 23,11.5 C23,10.9916191 22.9665781,10.4910098 22.9026543,10.0000137 Z" id="Path"></path>
                        <path d="M14.5000176,14.5000176 L14.5000176,14.5000176 L19.6317129,19.6317578 C19.8677324,19.3958281 20.0928809,19.1491621 20.3076973,18.8934668 L15.914248,14.5000176 L14.5000176,14.5000176 L14.5000176,14.5000176 Z" id="Path"></path>
                        <path d="M8.49998242,14.5000625 L8.49989258,14.5000625 L3.36824219,19.6317129 C3.60417188,19.8677324 3.85083789,20.0928809 4.1065332,20.3076973 L8.49998242,15.9141582 L8.49998242,14.5000625 Z" id="Path"></path>
                        <path d="M8.49998242,8.50007227 L8.49998242,8.49998242 L3.36828711,3.36824219 C3.13226758,3.60417188 2.90711914,3.85083789 2.69230273,4.1065332 L7.08579688,8.50007227 L8.49998242,8.50007227 L8.49998242,8.50007227 Z" id="Path"></path>
                        <path d="M14.5000176,8.50007227 L14.5000176,8.50007227 L19.6317578,3.36828711 C19.3958281,3.13226758 19.1491621,2.90711914 18.8934668,2.69234766 L14.5000176,7.0858418 L14.5000176,8.50007227 L14.5000176,8.50007227 Z" id="Path"></path>
                    </g>
                </g>
            </g>
        </g>
    </g>
</svg>
